STARTFONT 2.1
FONT -Misc-Ohsnapmod-Medium-R-Normal--12-87-100-100-C-70-ISO8859-1
SIZE 8 100 100
FONTBOUNDINGBOX 7 12 0 -2
COMMENT "Generated by fontforge, http://fontforge.sourceforge.net"
STARTPROPERTIES 24
FONTNAME_REGISTRY ""
FOUNDRY "Misc"
FAMILY_NAME "Ohsnapmod"
WEIGHT_NAME "Medium"
SLANT "R"
SETWIDTH_NAME "Normal"
ADD_STYLE_NAME ""
PIXEL_SIZE 12
POINT_SIZE 87
RESOLUTION_X 100
RESOLUTION_Y 100
SPACING "C"
AVERAGE_WIDTH 70
CHARSET_REGISTRY "ISO8859"
CHARSET_ENCODING "1"
COPYRIGHT "Copyright (c) 2015, Dan Church,,651-206-7515,+1-651-206-7515"
CAP_HEIGHT 7
X_HEIGHT 5
WEIGHT 10
QUAD_WIDTH 7
_GBDFED_INFO "Edited with gbdfed 1.6."
RESOLUTION 138
FONT_ASCENT 10
FONT_DESCENT 2
ENDPROPERTIES
CHARS 256
STARTCHAR uni0000
ENCODING 0
SWIDTH 583 0
DWIDTH 7 0
BBX 5 8 0 0
BITMAP
F8
F8
F8
F8
F8
F8
F8
F8
ENDCHAR
STARTCHAR uni0001
ENCODING 1
SWIDTH 583 0
DWIDTH 7 0
BBX 5 5 0 2
BITMAP
20
70
F8
70
20
ENDCHAR
STARTCHAR uni0002
ENCODING 2
SWIDTH 420 0
DWIDTH 7 0
BBX 7 12 0 -2
BITMAP
AA
54
AA
54
AA
54
AA
54
AA
54
AA
54
ENDCHAR
STARTCHAR uni0003
ENCODING 3
SWIDTH 583 0
DWIDTH 7 0
BBX 6 11 0 -1
BITMAP
90
90
F0
90
90
00
7C
10
10
10
10
ENDCHAR
STARTCHAR uni0004
ENCODING 4
SWIDTH 583 0
DWIDTH 7 0
BBX 6 11 0 -1
BITMAP
F0
80
E0
80
80
00
3C
20
38
20
20
ENDCHAR
STARTCHAR uni0005
ENCODING 5
SWIDTH 583 0
DWIDTH 7 0
BBX 6 11 0 -1
BITMAP
60
90
80
90
60
00
38
24
38
28
24
ENDCHAR
STARTCHAR uni0006
ENCODING 6
SWIDTH 583 0
DWIDTH 7 0
BBX 6 11 0 -1
BITMAP
80
80
80
80
F0
00
3C
20
38
20
20
ENDCHAR
STARTCHAR uni0007
ENCODING 7
SWIDTH 583 0
DWIDTH 7 0
BBX 3 3 1 6
BITMAP
40
A0
40
ENDCHAR
STARTCHAR uni0008
ENCODING 8
SWIDTH 583 0
DWIDTH 7 0
BBX 5 7 0 0
BITMAP
20
20
F8
20
20
00
F8
ENDCHAR
STARTCHAR uni0009
ENCODING 9
SWIDTH 583 0
DWIDTH 7 0
BBX 6 11 0 -1
BITMAP
90
D0
B0
90
90
00
20
20
20
20
3C
ENDCHAR
STARTCHAR uni000A
ENCODING 10
SWIDTH 583 0
DWIDTH 7 0
BBX 6 11 0 -1
BITMAP
88
88
88
50
20
00
7C
10
10
10
10
ENDCHAR
STARTCHAR uni000B
ENCODING 11
SWIDTH 420 0
DWIDTH 7 0
BBX 4 7 0 3
BITMAP
10
10
10
10
10
10
F0
ENDCHAR
STARTCHAR uni000C
ENCODING 12
SWIDTH 420 0
DWIDTH 7 0
BBX 4 6 0 -2
BITMAP
F0
10
10
10
10
10
ENDCHAR
STARTCHAR uni000D
ENCODING 13
SWIDTH 420 0
DWIDTH 7 0
BBX 4 6 3 -2
BITMAP
F0
80
80
80
80
80
ENDCHAR
STARTCHAR uni000E
ENCODING 14
SWIDTH 420 0
DWIDTH 7 0
BBX 4 7 3 3
BITMAP
80
80
80
80
80
80
F0
ENDCHAR
STARTCHAR uni000F
ENCODING 15
SWIDTH 420 0
DWIDTH 7 0
BBX 7 12 0 -2
BITMAP
10
10
10
10
10
10
FE
10
10
10
10
10
ENDCHAR
STARTCHAR uni0010
ENCODING 16
SWIDTH 420 0
DWIDTH 6 0
BBX 6 1 0 9
BITMAP
FC
ENDCHAR
STARTCHAR uni0011
ENCODING 17
SWIDTH 420 0
DWIDTH 7 0
BBX 7 1 0 6
BITMAP
FE
ENDCHAR
STARTCHAR uni0012
ENCODING 18
SWIDTH 420 0
DWIDTH 7 0
BBX 7 1 0 3
BITMAP
FE
ENDCHAR
STARTCHAR uni0013
ENCODING 19
SWIDTH 420 0
DWIDTH 7 0
BBX 7 1 0 0
BITMAP
FE
ENDCHAR
STARTCHAR uni0014
ENCODING 20
SWIDTH 420 0
DWIDTH 6 0
BBX 6 1 0 -2
BITMAP
FC
ENDCHAR
STARTCHAR uni0015
ENCODING 21
SWIDTH 420 0
DWIDTH 7 0
BBX 4 12 3 -2
BITMAP
80
80
80
80
80
80
F0
80
80
80
80
80
ENDCHAR
STARTCHAR uni0016
ENCODING 22
SWIDTH 420 0
DWIDTH 7 0
BBX 4 12 0 -2
BITMAP
10
10
10
10
10
10
F0
10
10
10
10
10
ENDCHAR
STARTCHAR uni0017
ENCODING 23
SWIDTH 420 0
DWIDTH 7 0
BBX 7 7 0 3
BITMAP
10
10
10
10
10
10
FE
ENDCHAR
STARTCHAR uni0018
ENCODING 24
SWIDTH 420 0
DWIDTH 7 0
BBX 7 6 0 -2
BITMAP
FE
10
10
10
10
10
ENDCHAR
STARTCHAR uni0019
ENCODING 25
SWIDTH 420 0
DWIDTH 7 0
BBX 1 12 3 -2
BITMAP
80
80
80
80
80
80
80
80
80
80
80
80
ENDCHAR
STARTCHAR uni001A
ENCODING 26
SWIDTH 583 0
DWIDTH 7 0
BBX 5 9 0 0
BITMAP
10
20
40
80
40
20
10
00
F8
ENDCHAR
STARTCHAR uni001B
ENCODING 27
SWIDTH 583 0
DWIDTH 7 0
BBX 5 9 0 0
BITMAP
40
20
10
08
10
20
40
00
F8
ENDCHAR
STARTCHAR uni001C
ENCODING 28
SWIDTH 583 0
DWIDTH 7 0
BBX 5 6 0 0
BITMAP
F8
88
88
88
88
88
ENDCHAR
STARTCHAR uni001D
ENCODING 29
SWIDTH 583 0
DWIDTH 7 0
BBX 5 6 0 1
BITMAP
08
F8
20
40
F8
80
ENDCHAR
STARTCHAR uni001E
ENCODING 30
SWIDTH 583 0
DWIDTH 7 0
BBX 5 8 0 0
BITMAP
30
48
40
F0
40
40
48
F8
ENDCHAR
STARTCHAR uni001F
ENCODING 31
SWIDTH 583 0
DWIDTH 7 0
BBX 1 2 2 3
BITMAP
80
80
ENDCHAR
STARTCHAR space
ENCODING 32
SWIDTH 420 0
DWIDTH 7 0
BBX 1 1 6 -2
BITMAP
00
ENDCHAR
STARTCHAR exclam
ENCODING 33
SWIDTH 420 0
DWIDTH 7 0
BBX 1 8 3 0
BITMAP
80
80
80
80
80
00
80
80
ENDCHAR
STARTCHAR quotedbl
ENCODING 34
SWIDTH 420 0
DWIDTH 7 0
BBX 3 3 2 5
BITMAP
A0
A0
A0
ENDCHAR
STARTCHAR numbersign
ENCODING 35
SWIDTH 420 0
DWIDTH 7 0
BBX 5 7 1 0
BITMAP
50
50
F8
50
F8
50
50
ENDCHAR
STARTCHAR dollar
ENCODING 36
SWIDTH 420 0
DWIDTH 7 0
BBX 5 9 1 -1
BITMAP
20
F8
A0
A0
F8
28
28
F8
20
ENDCHAR
STARTCHAR percent
ENCODING 37
SWIDTH 420 0
DWIDTH 7 0
BBX 6 8 0 0
BITMAP
E0
A4
E8
10
20
5C
94
1C
ENDCHAR
STARTCHAR ampersand
ENCODING 38
SWIDTH 420 0
DWIDTH 7 0
BBX 5 8 1 0
BITMAP
E0
A0
A0
40
A8
90
90
E8
ENDCHAR
STARTCHAR quotesingle
ENCODING 39
SWIDTH 420 0
DWIDTH 7 0
BBX 1 3 3 5
BITMAP
80
80
80
ENDCHAR
STARTCHAR parenleft
ENCODING 40
SWIDTH 420 0
DWIDTH 7 0
BBX 3 9 3 -1
BITMAP
20
40
80
80
80
80
80
40
20
ENDCHAR
STARTCHAR parenright
ENCODING 41
SWIDTH 420 0
DWIDTH 7 0
BBX 3 9 1 -1
BITMAP
80
40
20
20
20
20
20
40
80
ENDCHAR
STARTCHAR asterisk
ENCODING 42
SWIDTH 420 0
DWIDTH 7 0
BBX 5 5 1 1
BITMAP
20
A8
70
A8
20
ENDCHAR
STARTCHAR plus
ENCODING 43
SWIDTH 420 0
DWIDTH 7 0
BBX 5 5 1 1
BITMAP
20
20
F8
20
20
ENDCHAR
STARTCHAR comma
ENCODING 44
SWIDTH 420 0
DWIDTH 7 0
BBX 2 4 2 -2
BITMAP
C0
C0
40
80
ENDCHAR
STARTCHAR hyphen
ENCODING 45
SWIDTH 420 0
DWIDTH 7 0
BBX 5 1 1 3
BITMAP
F8
ENDCHAR
STARTCHAR period
ENCODING 46
SWIDTH 420 0
DWIDTH 7 0
BBX 2 2 2 0
BITMAP
C0
C0
ENDCHAR
STARTCHAR slash
ENCODING 47
SWIDTH 420 0
DWIDTH 7 0
BBX 4 8 2 -1
BITMAP
10
10
20
20
40
40
80
80
ENDCHAR
STARTCHAR zero
ENCODING 48
SWIDTH 420 0
DWIDTH 7 0
BBX 5 7 1 0
BITMAP
F8
88
98
A8
C8
88
F8
ENDCHAR
STARTCHAR one
ENCODING 49
SWIDTH 420 0
DWIDTH 7 0
BBX 3 7 2 0
BITMAP
20
60
A0
20
20
20
20
ENDCHAR
STARTCHAR two
ENCODING 50
SWIDTH 420 0
DWIDTH 7 0
BBX 5 7 1 0
BITMAP
F8
08
08
F8
80
80
F8
ENDCHAR
STARTCHAR three
ENCODING 51
SWIDTH 420 0
DWIDTH 7 0
BBX 5 7 1 0
BITMAP
F8
08
08
F8
08
08
F8
ENDCHAR
STARTCHAR four
ENCODING 52
SWIDTH 420 0
DWIDTH 7 0
BBX 5 7 1 0
BITMAP
88
88
88
F8
08
08
08
ENDCHAR
STARTCHAR five
ENCODING 53
SWIDTH 420 0
DWIDTH 7 0
BBX 5 7 1 0
BITMAP
F8
80
80
F8
08
08
F8
ENDCHAR
STARTCHAR six
ENCODING 54
SWIDTH 420 0
DWIDTH 7 0
BBX 5 7 1 0
BITMAP
F8
80
80
F8
88
88
F8
ENDCHAR
STARTCHAR seven
ENCODING 55
SWIDTH 420 0
DWIDTH 7 0
BBX 5 7 1 0
BITMAP
F8
08
08
08
08
08
08
ENDCHAR
STARTCHAR eight
ENCODING 56
SWIDTH 420 0
DWIDTH 7 0
BBX 5 7 1 0
BITMAP
F8
88
88
70
88
88
F8
ENDCHAR
STARTCHAR nine
ENCODING 57
SWIDTH 420 0
DWIDTH 7 0
BBX 5 7 1 0
BITMAP
F8
88
88
F8
08
08
08
ENDCHAR
STARTCHAR colon
ENCODING 58
SWIDTH 420 0
DWIDTH 7 0
BBX 2 5 2 0
BITMAP
C0
C0
00
C0
C0
ENDCHAR
STARTCHAR semicolon
ENCODING 59
SWIDTH 420 0
DWIDTH 7 0
BBX 2 7 2 -2
BITMAP
C0
C0
00
C0
C0
40
80
ENDCHAR
STARTCHAR less
ENCODING 60
SWIDTH 420 0
DWIDTH 7 0
BBX 4 7 2 0
BITMAP
10
20
40
80
40
20
10
ENDCHAR
STARTCHAR equal
ENCODING 61
SWIDTH 420 0
DWIDTH 7 0
BBX 5 3 1 2
BITMAP
F8
00
F8
ENDCHAR
STARTCHAR greater
ENCODING 62
SWIDTH 420 0
DWIDTH 7 0
BBX 4 7 1 0
BITMAP
80
40
20
10
20
40
80
ENDCHAR
STARTCHAR question
ENCODING 63
SWIDTH 420 0
DWIDTH 7 0
BBX 5 8 1 0
BITMAP
F8
08
08
38
20
00
20
20
ENDCHAR
STARTCHAR at
ENCODING 64
SWIDTH 420 0
DWIDTH 7 0
BBX 5 9 1 -1
BITMAP
F8
88
B8
A8
A8
A8
B8
80
F8
ENDCHAR
STARTCHAR A
ENCODING 65
SWIDTH 420 0
DWIDTH 7 0
BBX 5 7 1 0
BITMAP
F8
88
88
F8
88
88
88
ENDCHAR
STARTCHAR B
ENCODING 66
SWIDTH 420 0
DWIDTH 7 0
BBX 5 7 1 0
BITMAP
F0
90
90
F8
88
88
F8
ENDCHAR
STARTCHAR C
ENCODING 67
SWIDTH 420 0
DWIDTH 7 0
BBX 5 7 1 0
BITMAP
F8
80
80
80
80
80
F8
ENDCHAR
STARTCHAR D
ENCODING 68
SWIDTH 420 0
DWIDTH 7 0
BBX 5 7 1 0
BITMAP
F0
88
88
88
88
88
F0
ENDCHAR
STARTCHAR E
ENCODING 69
SWIDTH 420 0
DWIDTH 7 0
BBX 5 7 1 0
BITMAP
F8
80
80
F8
80
80
F8
ENDCHAR
STARTCHAR F
ENCODING 70
SWIDTH 420 0
DWIDTH 7 0
BBX 5 7 1 0
BITMAP
F8
80
80
F8
80
80
80
ENDCHAR
STARTCHAR G
ENCODING 71
SWIDTH 420 0
DWIDTH 7 0
BBX 5 7 1 0
BITMAP
F8
80
80
B8
88
88
F8
ENDCHAR
STARTCHAR H
ENCODING 72
SWIDTH 420 0
DWIDTH 7 0
BBX 5 7 1 0
BITMAP
88
88
88
F8
88
88
88
ENDCHAR
STARTCHAR I
ENCODING 73
SWIDTH 420 0
DWIDTH 7 0
BBX 5 7 1 0
BITMAP
F8
20
20
20
20
20
F8
ENDCHAR
STARTCHAR J
ENCODING 74
SWIDTH 420 0
DWIDTH 7 0
BBX 5 7 1 0
BITMAP
08
08
08
08
08
08
F8
ENDCHAR
STARTCHAR K
ENCODING 75
SWIDTH 420 0
DWIDTH 7 0
BBX 5 7 1 0
BITMAP
88
90
A0
C0
A0
90
88
ENDCHAR
STARTCHAR L
ENCODING 76
SWIDTH 420 0
DWIDTH 7 0
BBX 5 7 1 0
BITMAP
80
80
80
80
80
80
F8
ENDCHAR
STARTCHAR M
ENCODING 77
SWIDTH 420 0
DWIDTH 7 0
BBX 5 7 1 0
BITMAP
F8
A8
A8
A8
A8
A8
A8
ENDCHAR
STARTCHAR N
ENCODING 78
SWIDTH 420 0
DWIDTH 7 0
BBX 5 7 1 0
BITMAP
F8
88
88
88
88
88
88
ENDCHAR
STARTCHAR O
ENCODING 79
SWIDTH 420 0
DWIDTH 7 0
BBX 5 7 1 0
BITMAP
F8
88
88
88
88
88
F8
ENDCHAR
STARTCHAR P
ENCODING 80
SWIDTH 420 0
DWIDTH 7 0
BBX 5 7 1 0
BITMAP
F8
88
88
F8
80
80
80
ENDCHAR
STARTCHAR Q
ENCODING 81
SWIDTH 420 0
DWIDTH 7 0
BBX 6 8 1 -1
BITMAP
F8
88
88
88
88
88
F8
0C
ENDCHAR
STARTCHAR R
ENCODING 82
SWIDTH 420 0
DWIDTH 7 0
BBX 5 7 1 0
BITMAP
F8
88
88
F8
A0
90
88
ENDCHAR
STARTCHAR S
ENCODING 83
SWIDTH 420 0
DWIDTH 7 0
BBX 5 7 1 0
BITMAP
F8
80
80
F8
08
08
F8
ENDCHAR
STARTCHAR T
ENCODING 84
SWIDTH 420 0
DWIDTH 7 0
BBX 5 7 1 0
BITMAP
F8
20
20
20
20
20
20
ENDCHAR
STARTCHAR U
ENCODING 85
SWIDTH 420 0
DWIDTH 7 0
BBX 5 7 1 0
BITMAP
88
88
88
88
88
88
F8
ENDCHAR
STARTCHAR V
ENCODING 86
SWIDTH 420 0
DWIDTH 7 0
BBX 5 7 1 0
BITMAP
88
88
88
88
88
50
20
ENDCHAR
STARTCHAR W
ENCODING 87
SWIDTH 420 0
DWIDTH 7 0
BBX 5 7 1 0
BITMAP
A8
A8
A8
A8
A8
A8
F8
ENDCHAR
STARTCHAR X
ENCODING 88
SWIDTH 420 0
DWIDTH 7 0
BBX 5 7 1 0
BITMAP
88
88
50
20
50
88
88
ENDCHAR
STARTCHAR Y
ENCODING 89
SWIDTH 420 0
DWIDTH 7 0
BBX 5 7 1 0
BITMAP
88
88
88
F8
20
20
20
ENDCHAR
STARTCHAR Z
ENCODING 90
SWIDTH 420 0
DWIDTH 7 0
BBX 5 7 1 0
BITMAP
F8
08
10
20
40
80
F8
ENDCHAR
STARTCHAR bracketleft
ENCODING 91
SWIDTH 420 0
DWIDTH 7 0
BBX 3 9 3 -1
BITMAP
E0
80
80
80
80
80
80
80
E0
ENDCHAR
STARTCHAR backslash
ENCODING 92
SWIDTH 420 0
DWIDTH 7 0
BBX 4 8 1 -1
BITMAP
80
80
40
40
20
20
10
10
ENDCHAR
STARTCHAR bracketright
ENCODING 93
SWIDTH 420 0
DWIDTH 7 0
BBX 3 9 1 -1
BITMAP
E0
20
20
20
20
20
20
20
E0
ENDCHAR
STARTCHAR asciicircum
ENCODING 94
SWIDTH 420 0
DWIDTH 7 0
BBX 5 3 1 5
BITMAP
20
50
88
ENDCHAR
STARTCHAR underscore
ENCODING 95
SWIDTH 420 0
DWIDTH 7 0
BBX 7 1 0 -1
BITMAP
FE
ENDCHAR
STARTCHAR grave
ENCODING 96
SWIDTH 420 0
DWIDTH 7 0
BBX 3 3 2 5
BITMAP
80
40
20
ENDCHAR
STARTCHAR a
ENCODING 97
SWIDTH 420 0
DWIDTH 7 0
BBX 5 5 1 0
BITMAP
F8
08
F8
88
F8
ENDCHAR
STARTCHAR b
ENCODING 98
SWIDTH 420 0
DWIDTH 7 0
BBX 5 7 1 0
BITMAP
80
80
F8
88
88
88
F8
ENDCHAR
STARTCHAR c
ENCODING 99
SWIDTH 420 0
DWIDTH 7 0
BBX 5 5 1 0
BITMAP
F8
80
80
80
F8
ENDCHAR
STARTCHAR d
ENCODING 100
SWIDTH 420 0
DWIDTH 7 0
BBX 5 7 1 0
BITMAP
08
08
F8
88
88
88
F8
ENDCHAR
STARTCHAR e
ENCODING 101
SWIDTH 420 0
DWIDTH 7 0
BBX 5 5 1 0
BITMAP
F8
88
F8
80
F8
ENDCHAR
STARTCHAR f
ENCODING 102
SWIDTH 420 0
DWIDTH 7 0
BBX 5 7 1 0
BITMAP
78
40
F0
40
40
40
40
ENDCHAR
STARTCHAR g
ENCODING 103
SWIDTH 420 0
DWIDTH 7 0
BBX 5 7 1 -2
BITMAP
F8
88
88
88
F8
08
F8
ENDCHAR
STARTCHAR h
ENCODING 104
SWIDTH 420 0
DWIDTH 7 0
BBX 5 7 1 0
BITMAP
80
80
F8
88
88
88
88
ENDCHAR
STARTCHAR i
ENCODING 105
SWIDTH 420 0
DWIDTH 7 0
BBX 5 8 1 0
BITMAP
20
20
00
E0
20
20
20
38
ENDCHAR
STARTCHAR j
ENCODING 106
SWIDTH 420 0
DWIDTH 7 0
BBX 4 10 1 -2
BITMAP
10
10
00
10
10
10
10
10
10
F0
ENDCHAR
STARTCHAR k
ENCODING 107
SWIDTH 420 0
DWIDTH 7 0
BBX 5 7 1 0
BITMAP
80
80
90
A0
E0
90
88
ENDCHAR
STARTCHAR l
ENCODING 108
SWIDTH 420 0
DWIDTH 7 0
BBX 5 7 1 0
BITMAP
E0
20
20
20
20
20
38
ENDCHAR
STARTCHAR m
ENCODING 109
SWIDTH 420 0
DWIDTH 7 0
BBX 5 5 1 0
BITMAP
F8
A8
A8
A8
A8
ENDCHAR
STARTCHAR n
ENCODING 110
SWIDTH 420 0
DWIDTH 7 0
BBX 5 5 1 0
BITMAP
F8
88
88
88
88
ENDCHAR
STARTCHAR o
ENCODING 111
SWIDTH 420 0
DWIDTH 7 0
BBX 5 5 1 0
BITMAP
F8
88
88
88
F8
ENDCHAR
STARTCHAR p
ENCODING 112
SWIDTH 420 0
DWIDTH 7 0
BBX 5 7 1 -2
BITMAP
F8
88
88
88
F8
80
80
ENDCHAR
STARTCHAR q
ENCODING 113
SWIDTH 420 0
DWIDTH 7 0
BBX 5 7 1 -2
BITMAP
F8
88
88
88
F8
08
08
ENDCHAR
STARTCHAR r
ENCODING 114
SWIDTH 420 0
DWIDTH 7 0
BBX 5 5 1 0
BITMAP
F8
80
80
80
80
ENDCHAR
STARTCHAR s
ENCODING 115
SWIDTH 420 0
DWIDTH 7 0
BBX 5 5 1 0
BITMAP
F8
80
F8
08
F8
ENDCHAR
STARTCHAR t
ENCODING 116
SWIDTH 420 0
DWIDTH 7 0
BBX 5 7 1 0
BITMAP
40
40
F0
40
40
40
78
ENDCHAR
STARTCHAR u
ENCODING 117
SWIDTH 420 0
DWIDTH 7 0
BBX 5 5 1 0
BITMAP
88
88
88
88
F8
ENDCHAR
STARTCHAR v
ENCODING 118
SWIDTH 420 0
DWIDTH 7 0
BBX 5 5 1 0
BITMAP
88
88
88
50
20
ENDCHAR
STARTCHAR w
ENCODING 119
SWIDTH 420 0
DWIDTH 7 0
BBX 5 5 1 0
BITMAP
A8
A8
A8
A8
F8
ENDCHAR
STARTCHAR x
ENCODING 120
SWIDTH 420 0
DWIDTH 7 0
BBX 5 5 1 0
BITMAP
88
50
20
50
88
ENDCHAR
STARTCHAR y
ENCODING 121
SWIDTH 420 0
DWIDTH 7 0
BBX 5 7 1 -2
BITMAP
88
88
88
88
F8
08
F8
ENDCHAR
STARTCHAR z
ENCODING 122
SWIDTH 420 0
DWIDTH 7 0
BBX 5 5 1 0
BITMAP
F8
10
20
40
F8
ENDCHAR
STARTCHAR braceleft
ENCODING 123
SWIDTH 420 0
DWIDTH 7 0
BBX 4 9 2 -1
BITMAP
70
40
40
40
80
40
40
40
70
ENDCHAR
STARTCHAR bar
ENCODING 124
SWIDTH 420 0
DWIDTH 7 0
BBX 1 9 3 -1
BITMAP
80
80
80
80
80
80
80
80
80
ENDCHAR
STARTCHAR braceright
ENCODING 125
SWIDTH 420 0
DWIDTH 7 0
BBX 4 9 1 -1
BITMAP
E0
20
20
20
10
20
20
20
E0
ENDCHAR
STARTCHAR asciitilde
ENCODING 126
SWIDTH 420 0
DWIDTH 7 0
BBX 5 3 1 5
BITMAP
E8
A8
B8
ENDCHAR
STARTCHAR uni007F
ENCODING 127
SWIDTH 583 0
DWIDTH 7 0
BBX 5 6 0 0
BITMAP
20
50
88
88
88
F8
ENDCHAR
STARTCHAR uni0080
ENCODING 128
SWIDTH 583 0
DWIDTH 7 0
BBX 6 7 0 0
BITMAP
38
44
F0
40
F0
44
38
ENDCHAR
STARTCHAR uni0081
ENCODING 129
SWIDTH 583 0
DWIDTH 7 0
BBX 1 1 0 0
BITMAP
00
ENDCHAR
STARTCHAR uni0082
ENCODING 130
SWIDTH 583 0
DWIDTH 7 0
BBX 2 3 1 -1
BITMAP
40
40
80
ENDCHAR
STARTCHAR uni0083
ENCODING 131
SWIDTH 583 0
DWIDTH 7 0
BBX 5 10 0 -2
BITMAP
10
28
20
70
20
20
20
20
A0
40
ENDCHAR
STARTCHAR uni0084
ENCODING 132
SWIDTH 583 0
DWIDTH 7 0
BBX 4 3 0 -1
BITMAP
50
50
A0
ENDCHAR
STARTCHAR uni0085
ENCODING 133
SWIDTH 583 0
DWIDTH 7 0
BBX 5 2 0 0
BITMAP
A8
A8
ENDCHAR
STARTCHAR uni0086
ENCODING 134
SWIDTH 583 0
DWIDTH 7 0
BBX 3 8 1 0
BITMAP
40
E0
40
40
40
40
40
40
ENDCHAR
STARTCHAR uni0087
ENCODING 135
SWIDTH 583 0
DWIDTH 7 0
BBX 3 8 1 0
BITMAP
40
E0
40
40
40
40
E0
40
ENDCHAR
STARTCHAR uni0088
ENCODING 136
SWIDTH 583 0
DWIDTH 7 0
BBX 3 2 1 8
BITMAP
40
A0
ENDCHAR
STARTCHAR uni0089
ENCODING 137
SWIDTH 583 0
DWIDTH 7 0
BBX 6 8 0 0
BITMAP
44
A8
50
20
40
A8
54
28
ENDCHAR
STARTCHAR uni008A
ENCODING 138
SWIDTH 583 0
DWIDTH 7 0
BBX 5 10 1 0
BITMAP
50
20
00
F8
80
80
F8
08
08
F8
ENDCHAR
STARTCHAR uni008B
ENCODING 139
SWIDTH 583 0
DWIDTH 7 0
BBX 4 7 1 0
BITMAP
10
20
40
80
40
20
10
ENDCHAR
STARTCHAR uni008C
ENCODING 140
SWIDTH 583 0
DWIDTH 7 0
BBX 6 8 0 0
BITMAP
7C
90
90
9C
90
90
90
7C
ENDCHAR
STARTCHAR uni008D
ENCODING 141
SWIDTH 583 0
DWIDTH 7 0
BBX 1 1 0 0
BITMAP
00
ENDCHAR
STARTCHAR uni008E
ENCODING 142
SWIDTH 583 0
DWIDTH 7 0
BBX 5 10 1 0
BITMAP
50
20
00
F8
08
10
20
40
80
F8
ENDCHAR
STARTCHAR uni008F
ENCODING 143
SWIDTH 583 0
DWIDTH 7 0
BBX 1 1 0 0
BITMAP
00
ENDCHAR
STARTCHAR uni0090
ENCODING 144
SWIDTH 583 0
DWIDTH 7 0
BBX 1 1 0 0
BITMAP
00
ENDCHAR
STARTCHAR uni0091
ENCODING 145
SWIDTH 583 0
DWIDTH 7 0
BBX 2 3 2 6
BITMAP
40
80
80
ENDCHAR
STARTCHAR uni0092
ENCODING 146
SWIDTH 583 0
DWIDTH 7 0
BBX 2 3 1 6
BITMAP
40
40
80
ENDCHAR
STARTCHAR uni0093
ENCODING 147
SWIDTH 583 0
DWIDTH 7 0
BBX 4 3 1 6
BITMAP
50
A0
A0
ENDCHAR
STARTCHAR uni0094
ENCODING 148
SWIDTH 583 0
DWIDTH 7 0
BBX 4 3 1 6
BITMAP
50
50
A0
ENDCHAR
STARTCHAR uni0095
ENCODING 149
SWIDTH 583 0
DWIDTH 7 0
BBX 4 4 1 2
BITMAP
60
F0
F0
60
ENDCHAR
STARTCHAR uni0096
ENCODING 150
SWIDTH 583 0
DWIDTH 7 0
BBX 5 1 0 3
BITMAP
F8
ENDCHAR
STARTCHAR uni0097
ENCODING 151
SWIDTH 583 0
DWIDTH 7 0
BBX 5 1 0 3
BITMAP
F8
ENDCHAR
STARTCHAR uni0098
ENCODING 152
SWIDTH 583 0
DWIDTH 7 0
BBX 4 2 1 8
BITMAP
50
A0
ENDCHAR
STARTCHAR uni0099
ENCODING 153
SWIDTH 583 0
DWIDTH 7 0
BBX 6 4 0 4
BITMAP
F4
5C
54
54
ENDCHAR
STARTCHAR uni009A
ENCODING 154
SWIDTH 583 0
DWIDTH 7 0
BBX 5 8 1 0
BITMAP
50
20
00
F8
80
F8
08
F8
ENDCHAR
STARTCHAR uni009B
ENCODING 155
SWIDTH 583 0
DWIDTH 7 0
BBX 4 7 1 0
BITMAP
80
40
20
10
20
40
80
ENDCHAR
STARTCHAR uni009C
ENCODING 156
SWIDTH 583 0
DWIDTH 7 0
BBX 5 6 0 0
BITMAP
70
A8
A8
B0
A0
78
ENDCHAR
STARTCHAR uni009D
ENCODING 157
SWIDTH 583 0
DWIDTH 7 0
BBX 1 1 0 0
BITMAP
00
ENDCHAR
STARTCHAR uni009E
ENCODING 158
SWIDTH 1000 0
DWIDTH 7 0
BBX 5 8 1 0
BITMAP
50
20
00
F8
10
20
40
F8
ENDCHAR
STARTCHAR uni009F
ENCODING 159
SWIDTH 1000 0
DWIDTH 7 0
BBX 5 10 1 0
BITMAP
50
50
00
88
88
88
F8
20
20
20
ENDCHAR
STARTCHAR uni00A0
ENCODING 160
SWIDTH 420 0
DWIDTH 7 0
BBX 1 1 6 -2
BITMAP
00
ENDCHAR
STARTCHAR exclamdown
ENCODING 161
SWIDTH 420 0
DWIDTH 7 0
BBX 1 8 3 0
BITMAP
80
80
00
80
80
80
80
80
ENDCHAR
STARTCHAR cent
ENCODING 162
SWIDTH 420 0
DWIDTH 7 0
BBX 5 7 1 -1
BITMAP
20
F8
A0
A0
A0
F8
20
ENDCHAR
STARTCHAR sterling
ENCODING 163
SWIDTH 420 0
DWIDTH 7 0
BBX 5 7 1 0
BITMAP
78
40
40
F0
40
40
F8
ENDCHAR
STARTCHAR currency
ENCODING 164
SWIDTH 420 0
DWIDTH 7 0
BBX 5 5 1 1
BITMAP
88
70
50
70
88
ENDCHAR
STARTCHAR yen
ENCODING 165
SWIDTH 420 0
DWIDTH 7 0
BBX 5 7 1 0
BITMAP
88
50
20
F8
20
F8
20
ENDCHAR
STARTCHAR brokenbar
ENCODING 166
SWIDTH 420 0
DWIDTH 7 0
BBX 1 7 3 0
BITMAP
80
80
80
00
80
80
80
ENDCHAR
STARTCHAR section
ENCODING 167
SWIDTH 420 0
DWIDTH 7 0
BBX 5 7 1 0
BITMAP
F8
80
F8
88
F8
08
F8
ENDCHAR
STARTCHAR dieresis
ENCODING 168
SWIDTH 420 0
DWIDTH 7 0
BBX 3 2 2 8
BITMAP
A0
A0
ENDCHAR
STARTCHAR copyright
ENCODING 169
SWIDTH 420 0
DWIDTH 7 0
BBX 6 7 0 0
BITMAP
FC
84
B4
A4
B4
84
FC
ENDCHAR
STARTCHAR ordfeminine
ENCODING 170
SWIDTH 420 0
DWIDTH 7 0
BBX 5 7 1 1
BITMAP
F8
08
F8
88
F8
00
F8
ENDCHAR
STARTCHAR guillemotleft
ENCODING 171
SWIDTH 420 0
DWIDTH 7 0
BBX 6 7 0 0
BITMAP
14
28
50
A0
50
28
14
ENDCHAR
STARTCHAR logicalnot
ENCODING 172
SWIDTH 420 0
DWIDTH 7 0
BBX 5 3 1 1
BITMAP
F8
08
08
ENDCHAR
STARTCHAR uni00AD
ENCODING 173
SWIDTH 420 0
DWIDTH 7 0
BBX 3 1 2 3
BITMAP
E0
ENDCHAR
STARTCHAR registered
ENCODING 174
SWIDTH 420 0
DWIDTH 7 0
BBX 6 7 0 0
BITMAP
FC
84
B4
A4
A4
84
FC
ENDCHAR
STARTCHAR macron
ENCODING 175
SWIDTH 420 0
DWIDTH 7 0
BBX 3 1 2 8
BITMAP
E0
ENDCHAR
STARTCHAR degree
ENCODING 176
SWIDTH 420 0
DWIDTH 7 0
BBX 3 3 1 5
BITMAP
E0
A0
E0
ENDCHAR
STARTCHAR plusminus
ENCODING 177
SWIDTH 420 0
DWIDTH 7 0
BBX 5 7 1 0
BITMAP
20
20
F8
20
20
00
F8
ENDCHAR
STARTCHAR uni00B2
ENCODING 178
SWIDTH 420 0
DWIDTH 7 0
BBX 3 5 1 3
BITMAP
E0
20
E0
80
E0
ENDCHAR
STARTCHAR uni00B3
ENCODING 179
SWIDTH 420 0
DWIDTH 7 0
BBX 3 5 1 3
BITMAP
E0
20
E0
20
E0
ENDCHAR
STARTCHAR acute
ENCODING 180
SWIDTH 420 0
DWIDTH 7 0
BBX 2 2 3 8
BITMAP
40
80
ENDCHAR
STARTCHAR mu
ENCODING 181
SWIDTH 420 0
DWIDTH 7 0
BBX 5 7 1 -2
BITMAP
88
88
88
88
F8
80
80
ENDCHAR
STARTCHAR paragraph
ENCODING 182
SWIDTH 420 0
DWIDTH 7 0
BBX 5 7 1 0
BITMAP
F8
A8
A8
E8
28
28
28
ENDCHAR
STARTCHAR periodcentered
ENCODING 183
SWIDTH 420 0
DWIDTH 7 0
BBX 2 2 2 3
BITMAP
C0
C0
ENDCHAR
STARTCHAR cedilla
ENCODING 184
SWIDTH 420 0
DWIDTH 7 0
BBX 2 3 2 -2
BITMAP
40
40
80
ENDCHAR
STARTCHAR uni00B9
ENCODING 185
SWIDTH 420 0
DWIDTH 7 0
BBX 2 5 1 3
BITMAP
40
C0
40
40
40
ENDCHAR
STARTCHAR ordmasculine
ENCODING 186
SWIDTH 420 0
DWIDTH 7 0
BBX 5 7 1 1
BITMAP
F8
88
88
88
F8
00
F8
ENDCHAR
STARTCHAR guillemotright
ENCODING 187
SWIDTH 420 0
DWIDTH 7 0
BBX 6 7 0 0
BITMAP
A0
50
28
14
28
50
A0
ENDCHAR
STARTCHAR onequarter
ENCODING 188
SWIDTH 420 0
DWIDTH 7 0
BBX 6 11 0 -1
BITMAP
40
C0
44
48
50
20
54
94
1C
04
04
ENDCHAR
STARTCHAR onehalf
ENCODING 189
SWIDTH 420 0
DWIDTH 7 0
BBX 6 11 0 -1
BITMAP
40
C0
44
48
50
20
5C
84
1C
10
1C
ENDCHAR
STARTCHAR threequarters
ENCODING 190
SWIDTH 420 0
DWIDTH 7 0
BBX 6 11 0 -1
BITMAP
E0
20
E4
28
F0
20
54
94
1C
04
04
ENDCHAR
STARTCHAR questiondown
ENCODING 191
SWIDTH 420 0
DWIDTH 7 0
BBX 5 8 1 0
BITMAP
20
20
00
20
E0
80
80
F8
ENDCHAR
STARTCHAR Agrave
ENCODING 192
SWIDTH 420 0
DWIDTH 7 0
BBX 5 10 1 0
BITMAP
40
20
00
F8
88
88
F8
88
88
88
ENDCHAR
STARTCHAR Aacute
ENCODING 193
SWIDTH 420 0
DWIDTH 7 0
BBX 5 10 1 0
BITMAP
10
20
00
F8
88
88
F8
88
88
88
ENDCHAR
STARTCHAR Acircumflex
ENCODING 194
SWIDTH 420 0
DWIDTH 7 0
BBX 5 10 1 0
BITMAP
20
50
00
F8
88
88
F8
88
88
88
ENDCHAR
STARTCHAR Atilde
ENCODING 195
SWIDTH 420 0
DWIDTH 7 0
BBX 5 10 1 0
BITMAP
28
50
00
F8
88
88
F8
88
88
88
ENDCHAR
STARTCHAR Adieresis
ENCODING 196
SWIDTH 420 0
DWIDTH 7 0
BBX 5 10 1 0
BITMAP
50
50
00
F8
88
88
F8
88
88
88
ENDCHAR
STARTCHAR Aring
ENCODING 197
SWIDTH 420 0
DWIDTH 7 0
BBX 5 10 1 0
BITMAP
20
50
20
F8
88
88
F8
88
88
88
ENDCHAR
STARTCHAR AE
ENCODING 198
SWIDTH 420 0
DWIDTH 7 0
BBX 5 7 1 0
BITMAP
F8
A0
A0
F8
A0
A0
B8
ENDCHAR
STARTCHAR Ccedilla
ENCODING 199
SWIDTH 420 0
DWIDTH 7 0
BBX 5 9 1 -2
BITMAP
F8
80
80
80
80
80
F8
20
40
ENDCHAR
STARTCHAR Egrave
ENCODING 200
SWIDTH 420 0
DWIDTH 7 0
BBX 5 10 1 0
BITMAP
40
20
00
F8
80
80
F8
80
80
F8
ENDCHAR
STARTCHAR Eacute
ENCODING 201
SWIDTH 420 0
DWIDTH 7 0
BBX 5 10 1 0
BITMAP
10
20
00
F8
80
80
F8
80
80
F8
ENDCHAR
STARTCHAR Ecircumflex
ENCODING 202
SWIDTH 420 0
DWIDTH 7 0
BBX 5 10 1 0
BITMAP
20
50
00
F8
80
80
F8
80
80
F8
ENDCHAR
STARTCHAR Edieresis
ENCODING 203
SWIDTH 420 0
DWIDTH 7 0
BBX 5 10 1 0
BITMAP
50
50
00
F8
80
80
F8
80
80
F8
ENDCHAR
STARTCHAR Igrave
ENCODING 204
SWIDTH 420 0
DWIDTH 7 0
BBX 5 10 1 0
BITMAP
40
20
00
F8
20
20
20
20
20
F8
ENDCHAR
STARTCHAR Iacute
ENCODING 205
SWIDTH 420 0
DWIDTH 7 0
BBX 5 10 1 0
BITMAP
10
20
00
F8
20
20
20
20
20
F8
ENDCHAR
STARTCHAR Icircumflex
ENCODING 206
SWIDTH 420 0
DWIDTH 7 0
BBX 5 10 1 0
BITMAP
20
50
00
F8
20
20
20
20
20
F8
ENDCHAR
STARTCHAR Idieresis
ENCODING 207
SWIDTH 420 0
DWIDTH 7 0
BBX 5 10 1 0
BITMAP
50
50
00
F8
20
20
20
20
20
F8
ENDCHAR
STARTCHAR Eth
ENCODING 208
SWIDTH 420 0
DWIDTH 7 0
BBX 6 7 0 0
BITMAP
78
44
44
F4
44
44
78
ENDCHAR
STARTCHAR Ntilde
ENCODING 209
SWIDTH 420 0
DWIDTH 7 0
BBX 5 10 1 0
BITMAP
28
50
00
F8
88
88
88
88
88
88
ENDCHAR
STARTCHAR Ograve
ENCODING 210
SWIDTH 420 0
DWIDTH 7 0
BBX 5 10 1 0
BITMAP
40
20
00
F8
88
88
88
88
88
F8
ENDCHAR
STARTCHAR Oacute
ENCODING 211
SWIDTH 420 0
DWIDTH 7 0
BBX 5 10 1 0
BITMAP
10
20
00
F8
88
88
88
88
88
F8
ENDCHAR
STARTCHAR Ocircumflex
ENCODING 212
SWIDTH 420 0
DWIDTH 7 0
BBX 5 10 1 0
BITMAP
20
50
00
F8
88
88
88
88
88
F8
ENDCHAR
STARTCHAR Otilde
ENCODING 213
SWIDTH 420 0
DWIDTH 7 0
BBX 5 10 1 0
BITMAP
28
50
00
F8
88
88
88
88
88
F8
ENDCHAR
STARTCHAR Odieresis
ENCODING 214
SWIDTH 420 0
DWIDTH 7 0
BBX 5 10 1 0
BITMAP
50
50
00
F8
88
88
88
88
88
F8
ENDCHAR
STARTCHAR multiply
ENCODING 215
SWIDTH 420 0
DWIDTH 7 0
BBX 5 5 1 1
BITMAP
88
50
20
50
88
ENDCHAR
STARTCHAR Oslash
ENCODING 216
SWIDTH 420 0
DWIDTH 7 0
BBX 7 7 0 0
BITMAP
7E
44
4C
54
64
44
FC
ENDCHAR
STARTCHAR Ugrave
ENCODING 217
SWIDTH 420 0
DWIDTH 7 0
BBX 5 10 1 0
BITMAP
40
20
00
88
88
88
88
88
88
F8
ENDCHAR
STARTCHAR Uacute
ENCODING 218
SWIDTH 420 0
DWIDTH 7 0
BBX 5 10 1 0
BITMAP
10
20
00
88
88
88
88
88
88
F8
ENDCHAR
STARTCHAR Ucircumflex
ENCODING 219
SWIDTH 420 0
DWIDTH 7 0
BBX 5 10 1 0
BITMAP
20
50
00
88
88
88
88
88
88
F8
ENDCHAR
STARTCHAR Udieresis
ENCODING 220
SWIDTH 420 0
DWIDTH 7 0
BBX 5 10 1 0
BITMAP
50
50
00
88
88
88
88
88
88
F8
ENDCHAR
STARTCHAR Yacute
ENCODING 221
SWIDTH 420 0
DWIDTH 7 0
BBX 5 10 1 0
BITMAP
10
20
00
88
88
88
F8
20
20
20
ENDCHAR
STARTCHAR Thorn
ENCODING 222
SWIDTH 420 0
DWIDTH 7 0
BBX 5 7 1 0
BITMAP
80
F8
88
88
88
F8
80
ENDCHAR
STARTCHAR germandbls
ENCODING 223
SWIDTH 420 0
DWIDTH 7 0
BBX 5 7 1 0
BITMAP
F0
90
F8
88
88
C8
B8
ENDCHAR
STARTCHAR agrave
ENCODING 224
SWIDTH 420 0
DWIDTH 7 0
BBX 5 8 1 0
BITMAP
40
20
00
F8
08
F8
88
F8
ENDCHAR
STARTCHAR aacute
ENCODING 225
SWIDTH 420 0
DWIDTH 7 0
BBX 5 8 1 0
BITMAP
10
20
00
F8
08
F8
88
F8
ENDCHAR
STARTCHAR acircumflex
ENCODING 226
SWIDTH 420 0
DWIDTH 7 0
BBX 5 8 1 0
BITMAP
20
50
00
F8
08
F8
88
F8
ENDCHAR
STARTCHAR atilde
ENCODING 227
SWIDTH 420 0
DWIDTH 7 0
BBX 5 8 1 0
BITMAP
28
50
00
F8
08
F8
88
F8
ENDCHAR
STARTCHAR adieresis
ENCODING 228
SWIDTH 420 0
DWIDTH 7 0
BBX 5 8 1 0
BITMAP
50
50
00
F8
08
F8
88
F8
ENDCHAR
STARTCHAR aring
ENCODING 229
SWIDTH 420 0
DWIDTH 7 0
BBX 5 9 1 0
BITMAP
20
50
20
00
F8
08
F8
88
F8
ENDCHAR
STARTCHAR ae
ENCODING 230
SWIDTH 420 0
DWIDTH 7 0
BBX 5 5 1 0
BITMAP
F8
28
F8
A0
F8
ENDCHAR
STARTCHAR ccedilla
ENCODING 231
SWIDTH 420 0
DWIDTH 7 0
BBX 5 7 1 -2
BITMAP
F8
80
80
80
F8
20
40
ENDCHAR
STARTCHAR egrave
ENCODING 232
SWIDTH 420 0
DWIDTH 7 0
BBX 5 8 1 0
BITMAP
40
20
00
F8
88
F8
80
F8
ENDCHAR
STARTCHAR eacute
ENCODING 233
SWIDTH 420 0
DWIDTH 7 0
BBX 5 8 1 0
BITMAP
10
20
00
F8
88
F8
80
F8
ENDCHAR
STARTCHAR ecircumflex
ENCODING 234
SWIDTH 420 0
DWIDTH 7 0
BBX 5 8 1 0
BITMAP
20
50
00
F8
88
F8
80
F8
ENDCHAR
STARTCHAR edieresis
ENCODING 235
SWIDTH 420 0
DWIDTH 7 0
BBX 5 8 1 0
BITMAP
50
50
00
F8
88
F8
80
F8
ENDCHAR
STARTCHAR igrave
ENCODING 236
SWIDTH 420 0
DWIDTH 7 0
BBX 5 8 1 0
BITMAP
40
20
00
E0
20
20
20
38
ENDCHAR
STARTCHAR iacute
ENCODING 237
SWIDTH 420 0
DWIDTH 7 0
BBX 5 8 1 0
BITMAP
10
20
00
E0
20
20
20
38
ENDCHAR
STARTCHAR icircumflex
ENCODING 238
SWIDTH 420 0
DWIDTH 7 0
BBX 5 8 1 0
BITMAP
20
50
00
E0
20
20
20
38
ENDCHAR
STARTCHAR idieresis
ENCODING 239
SWIDTH 420 0
DWIDTH 7 0
BBX 5 8 1 0
BITMAP
50
50
00
E0
20
20
20
38
ENDCHAR
STARTCHAR eth
ENCODING 240
SWIDTH 420 0
DWIDTH 7 0
BBX 5 9 1 0
BITMAP
A0
40
A0
00
F8
88
88
88
F8
ENDCHAR
STARTCHAR ntilde
ENCODING 241
SWIDTH 420 0
DWIDTH 7 0
BBX 5 8 1 0
BITMAP
28
50
00
F8
88
88
88
88
ENDCHAR
STARTCHAR ograve
ENCODING 242
SWIDTH 420 0
DWIDTH 7 0
BBX 5 8 1 0
BITMAP
40
20
00
F8
88
88
88
F8
ENDCHAR
STARTCHAR oacute
ENCODING 243
SWIDTH 420 0
DWIDTH 7 0
BBX 5 8 1 0
BITMAP
10
20
00
F8
88
88
88
F8
ENDCHAR
STARTCHAR ocircumflex
ENCODING 244
SWIDTH 420 0
DWIDTH 7 0
BBX 5 8 1 0
BITMAP
20
50
00
F8
88
88
88
F8
ENDCHAR
STARTCHAR otilde
ENCODING 245
SWIDTH 420 0
DWIDTH 7 0
BBX 5 8 1 0
BITMAP
28
50
00
F8
88
88
88
F8
ENDCHAR
STARTCHAR odieresis
ENCODING 246
SWIDTH 420 0
DWIDTH 7 0
BBX 5 8 1 0
BITMAP
50
50
00
F8
88
88
88
F8
ENDCHAR
STARTCHAR divide
ENCODING 247
SWIDTH 420 0
DWIDTH 7 0
BBX 5 7 1 0
BITMAP
20
20
00
F8
00
20
20
ENDCHAR
STARTCHAR oslash
ENCODING 248
SWIDTH 420 0
DWIDTH 7 0
BBX 7 5 0 0
BITMAP
7E
4C
54
64
FC
ENDCHAR
STARTCHAR ugrave
ENCODING 249
SWIDTH 420 0
DWIDTH 7 0
BBX 5 8 1 0
BITMAP
40
20
00
88
88
88
88
F8
ENDCHAR
STARTCHAR uacute
ENCODING 250
SWIDTH 420 0
DWIDTH 7 0
BBX 5 8 1 0
BITMAP
10
20
00
88
88
88
88
F8
ENDCHAR
STARTCHAR ucircumflex
ENCODING 251
SWIDTH 420 0
DWIDTH 7 0
BBX 5 8 1 0
BITMAP
20
50
00
88
88
88
88
F8
ENDCHAR
STARTCHAR udieresis
ENCODING 252
SWIDTH 420 0
DWIDTH 7 0
BBX 5 8 1 0
BITMAP
50
50
00
88
88
88
88
F8
ENDCHAR
STARTCHAR yacute
ENCODING 253
SWIDTH 420 0
DWIDTH 7 0
BBX 5 10 1 -2
BITMAP
10
20
00
88
88
88
88
F8
08
F8
ENDCHAR
STARTCHAR thorn
ENCODING 254
SWIDTH 420 0
DWIDTH 7 0
BBX 5 9 1 -2
BITMAP
80
80
F8
88
88
88
F8
80
80
ENDCHAR
STARTCHAR ydieresis
ENCODING 255
SWIDTH 420 0
DWIDTH 7 0
BBX 5 10 1 -2
BITMAP
50
50
00
88
88
88
88
F8
08
F8
ENDCHAR
ENDFONT
